<?xml version="1.0" standalone="no"?><!DOCTYPE svg PUBLIC "-//W3C//DTD SVG 1.1//EN" "http://www.w3.org/Graphics/SVG/1.1/DTD/svg11.dtd"><svg t="1664941765873" class="icon" viewBox="0 0 1024 1024" version="1.1" xmlns="http://www.w3.org/2000/svg" p-id="2632" xmlns:xlink="http://www.w3.org/1999/xlink" width="200" height="200"><path d="M736.9 892.6c-10.9 0-21.8-2.6-31.9-7.9L510.7 782.5 316.4 884.7c-23.3 12.2-50.9 10.1-72.1-5.2-21.2-15.4-31.6-41-27.2-66.9l37.1-216.4L97.1 443.1c-18.8-18.3-25.4-45.2-17.3-70.1 8.1-24.9 29.3-42.8 55.2-46.6l217.2-31.6L449.3 98c11.6-23.5 35.1-38.2 61.4-38.2 26.2 0 49.7 14.6 61.3 38.1l97.1 196.8 217.2 31.5c26 3.8 47.2 21.7 55.2 46.6 8.1 24.9 1.5 51.8-17.3 70.1L767.1 596.3l37.1 216.4c4.4 25.8-6 51.5-27.2 66.9-12 8.6-26.1 13-40.1 13zM166.8 401.2L313 543.7c16.2 15.7 23.5 38.5 19.7 60.6l-34.5 201.2 180.7-95c20-10.5 43.7-10.5 63.6-0.1l180.7 95-34.5-201.2c-3.9-22.2 3.5-44.8 19.6-60.6l146.2-142.5-202-29.3c-22.3-3.3-41.6-17.3-51.5-37.5l-90.3-183-90.3 183.1c-9.9 20.2-29.2 34.2-51.5 37.4l-202.1 29.4z m334.7-268.4z" fill="#3F85FF" p-id="2633"></path><path d="M371.5 489.3c-19.2 0-36-14.1-38.9-33.7-3.1-21.5 11.8-41.4 33.3-44.6l75.4-11 33.7-68.4c9.6-19.5 33.2-27.5 52.7-17.9 19.5 9.6 27.5 33.2 17.9 52.7l-40.2 81.4c-7.4 15.1-21.8 25.6-38.5 27.9l-89.7 13.1c-2 0.3-3.8 0.5-5.7 0.5z" fill="#A4BEEC" p-id="2634"></path></svg>