<?xml version="1.0" standalone="no"?><!DOCTYPE svg PUBLIC "-//W3C//DTD SVG 1.1//EN" "http://www.w3.org/Graphics/SVG/1.1/DTD/svg11.dtd"><svg t="1665038966724" class="icon" viewBox="0 0 1024 1024" version="1.1" xmlns="http://www.w3.org/2000/svg" p-id="2558" xmlns:xlink="http://www.w3.org/1999/xlink" width="200" height="200"><path d="M763.4 660.8c6.9 19 3.1 43.8 0.9 63.4-5.5 48.5-22.9 105.9-72.8 125.5-11.8 4.6-24.4 7.4-37.1 8.8-7.4 0.8-14.8 1.1-22.3 1.3-5.2 0.1-18 2.5-22.5 0.1 0 0 122.4 66.9 167.1 5.1 19-26.2 18.6-62.7 15.1-93.5-4.3-38-14.7-75-28.4-110.7zM839.4 372.5c18.4 6.8 26.3 67.6-15.6 123.6-36.6 49.1-84.1 99.4-86.8 102.6 0 0 123.6-57.5 149.1-121.7 25.6-64.2-8.5-90.4-46.7-104.5z" fill="#5038db" p-id="2559"></path><path d="M506.3 143c7.9 0 16 2 24.4 6.5 79.7 42.2 130 208.4 130 208.4s3.7-0.1 10.3-0.1c39.6 0 181.4 3.1 209.1 47.6 48.8 78.3-124.6 179-143.6 192.9 0 0 102.9 201.3 24.4 260-15.2 11.4-34.6 16.8-56.3 16.8-59.1 0-135.4-40.4-192.9-111.9 0 0-123.1 117.7-204.1 117.7-7.3 0-14.2-1-20.7-3-110.5-35.4-37.9-209.7 0-274 0 0-151.7-61.5-151.7-142.6 0-48.4 93.9-103.8 213.3-103.8 5.6 0 11.3 0.1 17 0.4 7.4 0 59.8-214.9 140.8-214.9m0-24.1c-79.1 0-126 131-151.2 201.3-1.6 4.4-3.3 9.1-4.8 13.2h-1.8c-126.5 0-237.4 59.8-237.4 127.9 0 42.1 29.1 83.1 86.5 121.7 20.5 13.8 40.8 24.7 55.9 32.1-23.4 46.3-68.4 150.9-40.6 223.9 11.5 30.2 34.5 51.6 66.7 61.9 8.7 2.8 18.1 4.2 28.1 4.2 38.7 0 88-21.3 146.5-63.4 22.6-16.3 42.1-32.4 55.4-44 57.3 62.4 131.7 101.6 195 101.6 27.3 0 51.8-7.5 70.7-21.6 41.3-30.9 50.1-90.7 26.1-177.7-10.5-38-24.9-72.6-34.2-93.1 23.6-15.6 64.1-43.2 96-75.9 34.4-35.2 68.7-87.8 37.4-138.2-16-25.6-54.3-42.5-117.1-51.6-40.2-5.8-80.9-7.1-105.3-7.3-15.8-45.5-63.9-167.3-136.1-205.6-11.8-6.3-23.8-9.4-35.8-9.4z" fill="#5038db" p-id="2560"></path><path d="M409.9 382.8c-1.4 0-2.8-0.2-4.2-0.8-6.2-2.3-9.4-9.3-7-15.5 4-10.5 27.8-75.5 28.1-76.2 2.3-6.2 9.2-9.4 15.5-7.2 6.2 2.3 9.4 9.2 7.2 15.5-1 2.7-24.1 65.7-28.1 76.4-2 4.8-6.6 7.8-11.5 7.8zM326.4 417.8c-6 0-11.2-4.5-11.9-10.7-0.8-6.6 4-12.6 10.6-13.4l32.4-3.8c6.6-0.8 12.6 4 13.4 10.6s-4 12.6-10.6 13.4l-32.4 3.8c-0.6 0-1 0.1-1.5 0.1zM802.8 821c-2.1 0-4.1-0.8-5.7-2.4l-31.8-31.8c-3.1-3.1-3.1-8.2 0-11.4 3.1-3.1 8.2-3.1 11.4 0l31.8 31.8c3.1 3.1 3.1 8.2 0 11.4-1.6 1.6-3.6 2.4-5.7 2.4zM800.1 762.2c-2.1 0-4.1-0.8-5.7-2.4l-26.1-26.1c-3.1-3.1-3.1-8.2 0-11.4 3.1-3.1 8.2-3.1 11.4 0l26.1 26.1c3.1 3.1 3.1 8.2 0 11.4-1.6 1.6-3.7 2.4-5.7 2.4zM778.7 588.5c-2.1 0-4.1-0.8-5.7-2.4l-9.7-9.7c-3.1-3.1-3.1-8.2 0-11.4 3.1-3.1 8.2-3.1 11.4 0l9.7 9.7c3.1 3.1 3.1 8.2 0 11.4-1.6 1.6-3.7 2.4-5.7 2.4zM814.5 564.3c-2.1 0-4.1-0.8-5.7-2.4l-15.5-15.5c-3.1-3.1-3.1-8.2 0-11.4 3.1-3.1 8.2-3.1 11.4 0l15.5 15.5c3.1 3.1 3.1 8.2 0 11.4-1.6 1.6-3.7 2.4-5.7 2.4zM849 540.1c-2.1 0-4.1-0.8-5.7-2.4l-22.5-22.5c-3.1-3.1-3.1-8.2 0-11.4 3.1-3.1 8.2-3.1 11.4 0l22.5 22.5c3.1 3.1 3.1 8.2 0 11.4-1.6 1.6-3.6 2.4-5.7 2.4zM874.7 503.5c-2.1 0-4.1-0.8-5.7-2.4l-23.6-23.6c-3.1-3.1-3.1-8.2 0-11.4 3.1-3.1 8.2-3.1 11.4 0l23.6 23.6c3.1 3.1 3.1 8.2 0 11.4-1.6 1.6-3.7 2.4-5.7 2.4zM897.8 469.4c-2.1 0-4.1-0.8-5.7-2.4l-33.5-33.5c-3.1-3.1-3.1-8.2 0-11.4 3.1-3.1 8.2-3.1 11.4 0l33.5 33.5c3.1 3.1 3.1 8.2 0 11.4-1.6 1.6-3.7 2.4-5.7 2.4zM781.9 858.6c-2.1 0-4.1-0.8-5.7-2.4l-34.4-34.4c-3.1-3.1-3.1-8.2 0-11.4 3.1-3.1 8.2-3.1 11.4 0l34.4 34.4c3.1 3.1 3.1 8.2 0 11.4-1.6 1.6-3.6 2.4-5.7 2.4zM750.3 887.8c-2.1 0-4.1-0.8-5.7-2.4L715 855.9c-3.1-3.1-3.1-8.2 0-11.4 3.1-3.1 8.2-3.1 11.4 0l29.6 29.6c3.1 3.1 3.1 8.2 0 11.4-1.6 1.6-3.6 2.3-5.7 2.3zM700.8 897.6c-2.1 0-4.1-0.8-5.7-2.4l-25.6-25.6c-3.1-3.1-3.1-8.2 0-11.4 3.1-3.1 8.2-3.1 11.4 0l25.6 25.6c3.1 3.1 3.1 8.2 0 11.4-1.6 1.6-3.7 2.4-5.7 2.4z" fill="#5038db" p-id="2561"></path></svg>